<svg xmlns="http://www.w3.org/2000/svg" viewBox="0 0 292.34 237.18"><title>now main</title><path d="M296,99,256,41s-8-13-18-8L60,32S47,30,44,42L7,92s-7,11,0,20c0,0,4,12,22,14,0,0,20,5,30-17l3-8s4,19,19,25c0,0,29,4,36-17l4-8s0,20,19,24c0,0,28,6,35-13l4-10s3,18,24,24c0,0,23,7,35-23,0,0,3,27,34,23C272,126,299,119,296,99ZM122,90H64L82,52h45Zm57,0-6-38h43l18,38Z" transform="translate(-3.89 -31.86)"/><path d="M287,256c0-8-9-6-9-6l-1-112c-23,4-39-12-39-12-34,27-59,0-59,0-33,27-59,0-59,0-31,27-58,0-58,0-12,15-40,12-40,12V250H18c-6-1-6,4-6,4v8c-1,8,8,7,8,7H280C291,269,287,256,287,256Zm-180-6H60V171s1-7,11-6h30s5,0,6,6Zm123-19H153s-11,1-8-9l-1-51s1-6,6-6h79s11-3,10,7v53S244,231,230,231Z" transform="translate(-3.89 -31.86)"/><circle cx="74.11" cy="180.14" r="10"/></svg>